<?xml version="1.0" encoding="utf-8"?>
<!-- Generator: Adobe Illustrator 26.0.3, SVG Export Plug-In . SVG Version: 6.00 Build 0)  -->
<svg version="1.1" id="Layer_1" xmlns="http://www.w3.org/2000/svg" xmlns:xlink="http://www.w3.org/1999/xlink" x="0px" y="0px"
	 viewBox="0 0 850 854" style="enable-background:new 0 0 850 854;" xml:space="preserve">
<style type="text/css">
	.st0{fill:#FFFFFF;}
</style>
<g>
	<g>
		<path class="st0" d="M280.1,421h-54.3c0-107.6,87.5-195.2,195.1-195.2v54.3C343.3,280.1,280.1,343.3,280.1,421"/>
		<path class="st0" d="M391.5,421h-54.3c0-46.2,37.6-83.8,83.8-83.8v54.3C404.7,391.5,391.5,404.7,391.5,421"/>
		<path class="st0" d="M167.3,421h-54.3C113.1,251.2,251.2,113,421,113v54.3C281.1,167.3,167.3,281.1,167.3,421"/>
		<path class="st0" d="M54.3,421H0C0,188.8,188.8,0,421,0v54.3C218.8,54.3,54.3,218.8,54.3,421"/>
		<path class="st0" d="M476.3,849.9c17.6-2.3,35-5.5,51.8-9.8V10.9c-16.9-4.3-34.2-7.6-51.8-9.8V849.9z"/>
		<path class="st0" d="M583.5,821.4c17.9-7.4,35.2-16,51.8-25.7v-738c-16.6-9.7-33.9-18.3-51.8-25.7V821.4z"/>
		<path class="st0" d="M690.6,96.6v660.2c18.7-15.3,36-32.3,51.8-50.6v-559C726.6,128.9,709.3,111.9,690.6,96.6"/>
		<path class="st0" d="M798,629.7c32.7-60.4,51.3-129.5,51.3-203c0-73.5-18.6-142.7-51.3-203V629.7z"/>
		<path class="st0" d="M421,809.3l-39.8,42.4c13.1,1.3,26.4,2.1,39.8,2.2V809.3z"/>
		<path class="st0" d="M421,486.9L161.3,763.1c13.7,10.7,28,20.6,42.9,29.6L421,562V486.9z"/>
		<path class="st0" d="M421,648.1L258.9,820.5c17.3,7.3,35.1,13.4,53.4,18.4L421,723.3V648.1z"/>
		<path class="st0" d="M278.1,477.6L83.7,684.3c10.5,13.8,21.7,26.9,33.7,39.3l231.4-246.1H278.1z"/>
		<path class="st0" d="M0,477.6c0.5,4.1,1,8.1,1.6,12.2C3.1,499.5,5,509,7,518.6l38.5-41H0z"/>
		<path class="st0" d="M126.5,477.6L26.9,583.5c6.8,17.3,14.7,33.9,23.7,50l146.6-155.9H126.5z"/>
	</g>
</g>
</svg>
